<svg xmlns="http://www.w3.org/2000/svg" viewBox="0 0 200 200">
  <defs>
    <linearGradient id="bg" x1="0%" y1="0%" x2="100%" y2="100%">
      <stop offset="0%" style="stop-color:#ecfdf5"/>
      <stop offset="100%" style="stop-color:#a7f3d0"/>
    </linearGradient>
    <linearGradient id="bottle" x1="0%" y1="0%" x2="100%" y2="100%">
      <stop offset="0%" style="stop-color:#10b981"/>
      <stop offset="100%" style="stop-color:#059669"/>
    </linearGradient>
  </defs>
  <rect fill="url(#bg)" width="200" height="200"/>
  <ellipse cx="100" cy="180" rx="45" ry="8" fill="rgba(0,0,0,0.1)"/>
  <path d="M75 55 L75 45 L125 45 L125 55 L135 60 L135 170 C135 175 120 178 100 178 C80 178 65 175 65 170 L65 60 Z" fill="url(#bottle)"/>
  <rect x="90" y="35" width="20" height="15" rx="3" fill="#047857"/>
  <rect x="75" y="75" width="50" height="40" rx="5" fill="rgba(255,255,255,0.9)"/>
  <text x="100" y="93" text-anchor="middle" font-size="9" font-weight="bold" fill="#059669">FLOOR</text>
  <text x="100" y="107" text-anchor="middle" font-size="7" fill="#059669">CLEANER</text>
  <path d="M80 140 Q100 155 120 140" stroke="rgba(255,255,255,0.5)" stroke-width="3" fill="none"/>
  <circle cx="140" cy="100" r="10" fill="rgba(255,255,255,0.3)"/>
  <circle cx="60" cy="120" r="8" fill="rgba(255,255,255,0.25)"/>
</svg>
