<svg xmlns="http://www.w3.org/2000/svg" viewBox="0 0 200 200">
  <defs>
    <linearGradient id="bg" x1="0%" y1="0%" x2="100%" y2="100%">
      <stop offset="0%" style="stop-color:#e6f4f9"/>
      <stop offset="100%" style="stop-color:#b3dff0"/>
    </linearGradient>
    <linearGradient id="bottle" x1="0%" y1="0%" x2="100%" y2="100%">
      <stop offset="0%" style="stop-color:#0ea5e9"/>
      <stop offset="100%" style="stop-color:#0284c7"/>
    </linearGradient>
  </defs>
  <rect fill="url(#bg)" width="200" height="200"/>
  <ellipse cx="100" cy="178" rx="45" ry="8" fill="rgba(0,0,0,0.1)"/>
  <path d="M72 58 L72 48 L128 48 L128 58 L135 65 L135 168 C135 175 120 178 100 178 C80 178 65 175 65 168 L65 65 Z" fill="url(#bottle)"/>
  <rect x="85" y="38" width="30" height="14" rx="3" fill="#0369a1"/>
  <rect x="75" y="78" width="50" height="42" rx="5" fill="rgba(255,255,255,0.9)"/>
  <text x="100" y="95" text-anchor="middle" font-size="8" font-weight="bold" fill="#0284c7">LIQUID</text>
  <text x="100" y="110" text-anchor="middle" font-size="6" fill="#0284c7">DETERGENT</text>
  <ellipse cx="100" cy="145" rx="22" ry="14" fill="rgba(255,255,255,0.2)"/>
  <circle cx="92" cy="142" r="8" fill="rgba(255,255,255,0.3)"/>
  <circle cx="108" cy="148" r="6" fill="rgba(255,255,255,0.25)"/>
  <circle cx="140" cy="100" r="10" fill="rgba(255,255,255,0.2)"/>
</svg>
